<?xml version="1.0" encoding="UTF-8"?>
<!DOCTYPE svg PUBLIC "-//W3C//DTD SVG 1.1//EN" "http://www.w3.org/Graphics/SVG/1.1/DTD/svg11.dtd">
<svg xmlns="http://www.w3.org/2000/svg" version="1.1" width="1200px" height="1200px" style="shape-rendering:geometricPrecision; text-rendering:geometricPrecision; image-rendering:optimizeQuality; fill-rule:evenodd; clip-rule:evenodd" xmlns:xlink="http://www.w3.org/1999/xlink">
<g><path style="opacity:0.999" fill="#ef161e" d="M 565.5,-0.5 C 588.167,-0.5 610.833,-0.5 633.5,-0.5C 802.426,12.2151 942.926,81.5485 1055,207.5C 1141.8,310.491 1189.97,429.491 1199.5,564.5C 1199.5,587.5 1199.5,610.5 1199.5,633.5C 1186.78,802.427 1117.45,942.927 991.5,1055C 888.249,1142.1 768.916,1190.26 633.5,1199.5C 610.833,1199.5 588.167,1199.5 565.5,1199.5C 396.573,1186.78 256.073,1117.45 144,991.5C 57.1999,888.509 9.03324,769.509 -0.5,634.5C -0.5,611.167 -0.5,587.833 -0.5,564.5C 13.6894,384.932 90.3561,238.765 229.5,126C 328.501,50.0277 440.501,7.86103 565.5,-0.5 Z"/></g>
<g><path style="opacity:1" fill="#fffefe" d="M 318.5,250.5 C 364.501,250.333 410.501,250.5 456.5,251C 552.73,405.568 648.563,560.402 744,715.5C 744.5,560.5 744.667,405.5 744.5,250.5C 787.5,250.5 830.5,250.5 873.5,250.5C 873.5,483.167 873.5,715.833 873.5,948.5C 826.495,948.833 779.495,948.5 732.5,947.5C 638.333,795.167 544.167,642.833 450,490.5C 449.5,643.166 449.333,795.833 449.5,948.5C 405.833,948.5 362.167,948.5 318.5,948.5C 318.5,715.833 318.5,483.167 318.5,250.5 Z"/></g>
</svg>
